<?xml version="1.0" standalone="no"?>
<!DOCTYPE svg PUBLIC "-//W3C//DTD SVG 20010904//EN"
 "http://www.w3.org/TR/2001/REC-SVG-20010904/DTD/svg10.dtd">
<svg version="1.0" xmlns="http://www.w3.org/2000/svg"
 width="64.000000pt" height="64.000000pt" viewBox="0 0 64.000000 64.000000"
 preserveAspectRatio="xMidYMid meet">
<metadata>
Created by potrace 1.14, written by Peter Selinger 2001-2017
</metadata>
<g transform="translate(0.000000,64.000000) scale(0.100000,-0.100000)"
fill="#000000" stroke="none">
<path d="M232 606 c-126 -41 -205 -148 -206 -281 -1 -226 231 -367 435 -265
51 27 98 77 127 140 68 144 0 328 -146 392 -58 26 -153 32 -210 14z m168 -121
c30 -15 82 -66 76 -73 -3 -2 -26 5 -52 17 -62 30 -135 31 -198 3 -62 -28 -71
-28 -49 2 49 66 148 88 223 51z m-157 -186 c27 -38 -7 -101 -46 -86 -22 8 -32
53 -18 83 13 30 45 31 64 3z m221 -11 c13 -38 -6 -78 -38 -78 -26 0 -42 28
-37 65 7 51 59 60 75 13z"/>
</g>
</svg>
